<mxfile host="app.diagrams.net" agent="Mozilla/5.0 (Windows NT 10.0; Win64; x64) AppleWebKit/537.36 (KHTML, like Gecko) Chrome/127.0.0.0 Safari/537.36 Edg/127.0.0.0" version="24.7.6">
  <diagram name="Seite-1" id="LnTxc0us2FEAT5--cma6">
    <mxGraphModel dx="396" dy="228" grid="1" gridSize="10" guides="1" tooltips="1" connect="1" arrows="1" fold="1" page="1" pageScale="1" pageWidth="827" pageHeight="1169" math="0" shadow="0">
      <root>
        <mxCell id="0" />
        <mxCell id="1" parent="0" />
        <mxCell id="qyDbw8nwwaUlhFJvl2gg-1" value="Step" style="rounded=1;whiteSpace=wrap;html=1;" vertex="1" parent="1">
          <mxGeometry x="340" y="460" width="120" height="60" as="geometry" />
        </mxCell>
        <mxCell id="qyDbw8nwwaUlhFJvl2gg-2" value="pipeline step" style="shape=umlFrame;whiteSpace=wrap;html=1;pointerEvents=0;" vertex="1" parent="1">
          <mxGeometry x="260" y="150" width="760" height="450" as="geometry" />
        </mxCell>
        <mxCell id="qyDbw8nwwaUlhFJvl2gg-14" style="edgeStyle=orthogonalEdgeStyle;rounded=0;orthogonalLoop=1;jettySize=auto;html=1;exitX=0.5;exitY=1;exitDx=0;exitDy=0;entryX=0.25;entryY=0;entryDx=0;entryDy=0;endArrow=open;endFill=0;" edge="1" parent="1" source="qyDbw8nwwaUlhFJvl2gg-3" target="qyDbw8nwwaUlhFJvl2gg-4">
          <mxGeometry relative="1" as="geometry" />
        </mxCell>
        <mxCell id="qyDbw8nwwaUlhFJvl2gg-3" value="" style="ellipse;fillColor=strokeColor;html=1;" vertex="1" parent="1">
          <mxGeometry x="355" y="170" width="30" height="30" as="geometry" />
        </mxCell>
        <mxCell id="qyDbw8nwwaUlhFJvl2gg-4" value="Load pipeline step" style="rounded=1;whiteSpace=wrap;html=1;" vertex="1" parent="1">
          <mxGeometry x="340" y="260" width="120" height="60" as="geometry" />
        </mxCell>
        <mxCell id="qyDbw8nwwaUlhFJvl2gg-6" value="" style="ellipse;html=1;shape=endState;fillColor=strokeColor;" vertex="1" parent="1">
          <mxGeometry x="270" y="390" width="30" height="30" as="geometry" />
        </mxCell>
        <mxCell id="qyDbw8nwwaUlhFJvl2gg-12" style="edgeStyle=orthogonalEdgeStyle;rounded=0;orthogonalLoop=1;jettySize=auto;html=1;exitX=0.5;exitY=1;exitDx=0;exitDy=0;entryX=0.5;entryY=0;entryDx=0;entryDy=0;endArrow=open;endFill=0;" edge="1" parent="1" source="qyDbw8nwwaUlhFJvl2gg-10">
          <mxGeometry relative="1" as="geometry">
            <mxPoint x="480" y="250" as="targetPoint" />
          </mxGeometry>
        </mxCell>
        <mxCell id="qyDbw8nwwaUlhFJvl2gg-10" value="&amp;lt;&amp;lt;datastore&amp;gt;&amp;gt;" style="rounded=0;whiteSpace=wrap;html=1;" vertex="1" parent="1">
          <mxGeometry x="430" y="170" width="100" height="30" as="geometry" />
        </mxCell>
        <mxCell id="qyDbw8nwwaUlhFJvl2gg-13" value="" style="rounded=1;whiteSpace=wrap;html=1;" vertex="1" parent="1">
          <mxGeometry x="650" y="250" width="120" height="60" as="geometry" />
        </mxCell>
      </root>
    </mxGraphModel>
  </diagram>
</mxfile>
